<svg xmlns="http://www.w3.org/2000/svg" viewBox="0 0 51.538 43.771"><defs><style>.a{fill:#ffed0f;}</style></defs><g transform="translate(0 -2.486)"><g transform="translate(0 2.486)"><g transform="translate(0 4.998)"><path class="a" d="M11.182,38.558A11.183,11.183,0,1,1,22.366,27.376,11.195,11.195,0,0,1,11.182,38.558Zm0-20.8A9.621,9.621,0,1,0,20.8,27.376,9.633,9.633,0,0,0,11.182,17.754Z" transform="translate(0 0.216)"/><path class="a" d="M18.791,13.965a.781.781,0,0,1-.781-.781,5.936,5.936,0,0,0-11.521-2.01.781.781,0,0,1-1.47-.531A7.5,7.5,0,0,1,19.57,13.182.779.779,0,0,1,18.791,13.965Z" transform="translate(2.794 -5.686)"/><path class="a" d="M14.1,31.642a.781.781,0,0,1-.781-.781V10.768a.781.781,0,1,1,1.562,0V30.861A.781.781,0,0,1,14.1,31.642Z" transform="translate(7.483 -3.27)"/><path class="a" d="M1.126,29.047A.761.761,0,0,1,.848,29,.781.781,0,0,1,.4,27.988L7.517,9.244a.781.781,0,0,1,1.46.554L1.857,28.543A.782.782,0,0,1,1.126,29.047Z" transform="translate(0.193 -3.97)"/></g><g transform="translate(12.046)"><path class="a" d="M15.191,7.135a.781.781,0,0,1-.781-.781,2.307,2.307,0,0,0-4.478-.781.781.781,0,1,1-1.47-.529,3.869,3.869,0,0,1,7.509,1.31A.78.78,0,0,1,15.191,7.135Z" transform="translate(-7.319 -2.486)"/><path class="a" d="M13.035,9.373a.781.781,0,0,1-.781-.781V5.244a.781.781,0,1,1,1.562,0V8.592A.78.78,0,0,1,13.035,9.373Z" transform="translate(-5.163 -1.375)"/><path class="a" d="M8.5,8.212a.761.761,0,0,1-.278-.052.781.781,0,0,1-.453-1.007l1.048-2.76a.781.781,0,0,1,1.46.554L9.225,7.709A.778.778,0,0,1,8.5,8.212Z" transform="translate(-7.713 -1.698)"/></g></g><g transform="translate(29.172 2.486)"><g transform="translate(0 4.999)"><path class="a" d="M29.863,38.558A11.183,11.183,0,1,1,41.045,27.376,11.2,11.2,0,0,1,29.863,38.558Zm0-20.8a9.621,9.621,0,1,0,9.62,9.622A9.633,9.633,0,0,0,29.863,17.754Z" transform="translate(-18.679 0.214)"/><path class="a" d="M19.46,13.964a.781.781,0,0,1-.781-.781A7.5,7.5,0,0,1,33.23,10.644a.781.781,0,0,1-1.47.529,5.936,5.936,0,0,0-11.521,2.01A.778.778,0,0,1,19.46,13.964Z" transform="translate(-18.679 -5.687)"/><path class="a" d="M19.46,31.642a.781.781,0,0,1-.781-.781V10.768a.781.781,0,0,1,1.562,0V30.861A.78.78,0,0,1,19.46,31.642Z" transform="translate(-18.679 -3.271)"/><path class="a" d="M35,29.047a.779.779,0,0,1-.729-.5L27.146,9.8a.781.781,0,0,1,1.46-.554L35.728,27.99A.781.781,0,0,1,35.275,29,.83.83,0,0,1,35,29.047Z" transform="translate(-13.951 -3.971)"/></g><g transform="translate(1.666)"><path class="a" d="M20.527,7.135a.781.781,0,0,1-.781-.781,3.869,3.869,0,0,1,7.509-1.31.781.781,0,0,1-1.47.529,2.308,2.308,0,0,0-4.479.781A.778.778,0,0,1,20.527,7.135Z" transform="translate(-19.746 -2.486)"/><path class="a" d="M20.527,9.373a.781.781,0,0,1-.781-.781V5.244a.781.781,0,1,1,1.562,0V8.592A.78.78,0,0,1,20.527,9.373Z" transform="translate(-19.746 -1.375)"/><path class="a" d="M25.444,8.212a.779.779,0,0,1-.729-.5l-1.048-2.76a.781.781,0,1,1,1.46-.554l1.048,2.76a.781.781,0,0,1-.453,1.007A.793.793,0,0,1,25.444,8.212Z" transform="translate(-17.572 -1.698)"/></g></g><path class="a" d="M22.47,21.5H14.1a.781.781,0,0,1,0-1.562h7.587V13.43H14.1a.781.781,0,0,1,0-1.562H22.47a.781.781,0,0,1,.781.781v8.074A.78.78,0,0,1,22.47,21.5Z" transform="translate(7.483 5.27)"/></g></svg>