<svg xmlns="http://www.w3.org/2000/svg" viewBox="0 0 63.447 44.172"><defs><style>.a{fill:#ffed0f;}</style></defs><g transform="translate(0 -77.772)"><g transform="translate(0 77.772)"><g transform="translate(0 0)"><path class="a" d="M50.307,95.274a17.74,17.74,0,0,0-35.1-3.4h-.17a15.036,15.036,0,0,0,0,30.073H50.111a13.336,13.336,0,0,0,.2-26.67Zm-.2,23.964H15.036a12.33,12.33,0,0,1,0-24.66c.362,0,.745.019,1.171.059a1.353,1.353,0,0,0,1.468-1.164A15.033,15.033,0,0,1,47.6,95.521c0,.3-.022.606-.046.932l-.01.139a1.353,1.353,0,0,0,1.485,1.442c.36-.036.723-.055,1.079-.055a10.63,10.63,0,0,1,0,21.259Z" transform="translate(0 -77.772)"/></g></g><g transform="translate(21.282 84.131)"><path class="a" d="M183.018,129.09a11.413,11.413,0,0,0-11.266,9.835,1.353,1.353,0,1,0,2.681.366,8.7,8.7,0,0,1,8.585-7.495,1.353,1.353,0,0,0,0-2.706Z" transform="translate(-171.74 -129.09)"/></g></g></svg>