<svg xmlns="http://www.w3.org/2000/svg" viewBox="0 0 36 47.996"><defs><style>.a{fill:#806262;}</style></defs><path class="a" d="M22,26.617a9,9,0,1,0-9-9A9.009,9.009,0,0,0,22,26.617Zm0-16.5a7.5,7.5,0,1,1-7.5,7.5A7.506,7.506,0,0,1,22,10.118ZM22,0A17.954,17.954,0,0,0,4,18c0,10.5,9,21.24,15.563,28.789A3.665,3.665,0,0,0,21.942,48h.115a3.67,3.67,0,0,0,2.379-1.207C31,39.24,40,28.5,40,18A17.955,17.955,0,0,0,22,0Zm.175,44.821a1.821,1.821,0,0,1-.2.147,1.5,1.5,0,0,0-.193-.2C16.281,38.443,7,27.769,7,18a15,15,0,1,1,30,0c0,9.767-9.281,20.442-14.826,26.819Z" transform="translate(-4)"/></svg>