<svg xmlns="http://www.w3.org/2000/svg" viewBox="0 0 68.546 28.246"><defs><style>.a{fill:#ffed0f;}</style></defs><g transform="translate(0 -17.121)"><g transform="translate(0 17.121)"><path class="a" d="M67.839,30.5a9.227,9.227,0,0,0-4.967-3.632,13.249,13.249,0,0,0-9,.252,108.117,108.117,0,0,0-9.884,4.852c-3.9,2.067-8.759,4.638-10.078,4.638-1.368,0-6.561-2.9-10.354-5.023-3.078-1.719-5.983-3.344-8.108-4.266a12.864,12.864,0,0,0-10.107-.112,8.123,8.123,0,0,0-3.607,3.229,3.078,3.078,0,0,0-.1,3.171A4.01,4.01,0,0,0,5.2,35.566a4.209,4.209,0,0,0,3.351-1.63,1.177,1.177,0,0,1,.465-.334,3.625,3.625,0,0,1,2.778.121c1.278.556,3.337,1.689,5.719,3,5.69,3.135,12.774,7.037,16.4,7.037,3.472,0,10.229-3.518,16.19-6.622,2.818-1.468,5.479-2.853,7.107-3.485a3.9,3.9,0,0,1,2.639-.14,1.386,1.386,0,0,1,.69.455,3.916,3.916,0,0,0,3.168,1.6h.637a4.092,4.092,0,0,0,3.6-1.983A2.952,2.952,0,0,0,67.839,30.5Zm-1.963,1.955a1.736,1.736,0,0,1-1.535.76H63.7a1.557,1.557,0,0,1-1.265-.63,3.679,3.679,0,0,0-1.823-1.295,6.281,6.281,0,0,0-4.259.169c-1.75.679-4.343,2.029-7.344,3.592-5.151,2.681-12.207,6.355-15.1,6.355-3.02,0-10.1-3.9-15.265-6.744-2.434-1.341-4.537-2.5-5.916-3.1a6.407,6.407,0,0,0-2.548-.539,5.282,5.282,0,0,0-2.11.42,3.489,3.489,0,0,0-1.381,1.047,1.87,1.87,0,0,1-1.491.719,1.676,1.676,0,0,1-1.5-.74.711.711,0,0,1,.029-.778,5.841,5.841,0,0,1,2.56-2.329h0a10.474,10.474,0,0,1,8.225.114c2.016.876,5.005,2.547,7.9,4.163,5.925,3.311,9.655,5.321,11.5,5.321,1.812,0,5.429-1.867,11.181-4.912a106.659,106.659,0,0,1,9.634-4.737,10.859,10.859,0,0,1,7.378-.222,6.962,6.962,0,0,1,3.752,2.674A.616.616,0,0,1,65.876,32.454Z" transform="translate(0.22 -15.515)"/><path class="a" d="M64.73,24.182a3.531,3.531,0,1,0,0-7.061H3.531a3.531,3.531,0,1,0,0,7.061ZM2.354,20.652a1.178,1.178,0,0,1,1.177-1.177h61.2a1.177,1.177,0,0,1,0,2.354H3.531A1.178,1.178,0,0,1,2.354,20.652Z" transform="translate(0 -17.121)"/></g></g></svg>