<svg xmlns="http://www.w3.org/2000/svg" viewBox="0 0 49.5 49.5"><defs><style>.a{fill:#ffed0f;}</style></defs><path class="a" d="M248.29,49.5a.826.826,0,0,1-.825-.825V.825a.825.825,0,0,1,1.65,0v47.85A.826.826,0,0,1,248.29,49.5Zm0,0" transform="translate(-223.54)"/><path class="a" d="M48.675,249.115H.825a.825.825,0,0,1,0-1.65h47.85a.825.825,0,0,1,0,1.65Zm0,0" transform="translate(0 -223.54)"/><path class="a" d="M96.858,97.682a.823.823,0,0,1-.583-.242l-36.3-36.3a.825.825,0,1,1,1.167-1.167l36.3,36.3a.825.825,0,0,1-.583,1.408Zm0,0" transform="translate(-53.958 -53.958)"/><path class="a" d="M60.557,97.682a.825.825,0,0,1-.583-1.408l36.3-36.3a.825.825,0,1,1,1.167,1.167l-36.3,36.3A.823.823,0,0,1,60.557,97.682Zm0,0" transform="translate(-53.958 -53.958)"/><path class="a" d="M132.665,145.865a.825.825,0,0,1-.777-.549,5.555,5.555,0,0,0-7.619-3.156.825.825,0,0,1-1.1-1.1,5.555,5.555,0,0,0-3.156-7.619.825.825,0,0,1,0-1.555,5.555,5.555,0,0,0,3.156-7.619.825.825,0,0,1,1.1-1.1,5.555,5.555,0,0,0,7.619-3.156.825.825,0,0,1,1.555,0,5.555,5.555,0,0,0,7.619,3.156.825.825,0,0,1,1.1,1.1,5.555,5.555,0,0,0,3.156,7.619.825.825,0,0,1,0,1.555,5.555,5.555,0,0,0-3.156,7.619.825.825,0,0,1-1.1,1.1,5.555,5.555,0,0,0-7.619,3.156A.827.827,0,0,1,132.665,145.865Zm-6.011-5.891a7.2,7.2,0,0,1,6.011,3.234,7.2,7.2,0,0,1,7.454-3.088,7.2,7.2,0,0,1,3.088-7.454,7.2,7.2,0,0,1-3.088-7.454,7.2,7.2,0,0,1-7.454-3.089,7.2,7.2,0,0,1-7.454,3.088,7.2,7.2,0,0,1-3.088,7.454,7.2,7.2,0,0,1,3.088,7.454A7.269,7.269,0,0,1,126.654,139.974Zm0,0" transform="translate(-107.915 -107.915)"/><path class="a" d="M217.459,21.189a.828.828,0,0,1-.5-.165l-3.3-2.475a.825.825,0,1,1,.99-1.32l2.8,2.1,2.8-2.1a.825.825,0,1,1,.99,1.32l-3.3,2.475A.828.828,0,0,1,217.459,21.189Zm0,0" transform="translate(-192.709 -15.414)"/><path class="a" d="M217.459,72.389a.825.825,0,0,1-.5-.165l-3.3-2.475a.825.825,0,1,1,.99-1.32l2.8,2.1,2.8-2.1a.825.825,0,1,1,.99,1.32l-3.3,2.475A.826.826,0,0,1,217.459,72.389Zm0,0" transform="translate(-192.709 -61.664)"/><path class="a" d="M220.755,447.856a.823.823,0,0,1-.494-.165l-2.8-2.1-2.8,2.1a.825.825,0,1,1-.99-1.32l3.3-2.475a.824.824,0,0,1,.99,0l3.3,2.475a.825.825,0,0,1-.5,1.485Zm0,0" transform="translate(-192.706 -400.831)"/><path class="a" d="M220.755,396.655a.823.823,0,0,1-.494-.165l-2.8-2.1-2.8,2.1a.825.825,0,1,1-.99-1.32l3.3-2.475a.825.825,0,0,1,.99,0l3.3,2.475a.825.825,0,0,1-.5,1.485Zm0,0" transform="translate(-192.706 -354.581)"/><path class="a" d="M455.566,221.583a.825.825,0,0,1-.661-.33l-2.475-3.3a.825.825,0,0,1,0-.99l2.475-3.3a.825.825,0,1,1,1.32.99l-2.1,2.8,2.1,2.8a.825.825,0,0,1-.659,1.32Zm0,0" transform="translate(-408.54 -192.708)"/><path class="a" d="M404.366,221.583a.824.824,0,0,1-.661-.33l-2.475-3.3a.825.825,0,0,1,0-.99l2.475-3.3a.825.825,0,1,1,1.32.99l-2.1,2.8,2.1,2.8a.825.825,0,0,1-.659,1.32Zm0,0" transform="translate(-362.291 -192.708)"/><path class="a" d="M17.888,221.583a.825.825,0,0,1-.659-1.32l2.1-2.8-2.1-2.8a.825.825,0,1,1,1.32-.99l2.475,3.3a.825.825,0,0,1,0,.99l-2.475,3.3A.823.823,0,0,1,17.888,221.583Zm0,0" transform="translate(-15.414 -192.708)"/><path class="a" d="M69.089,221.583a.825.825,0,0,1-.659-1.32l2.1-2.8-2.1-2.8a.825.825,0,1,1,1.32-.99l2.475,3.3a.825.825,0,0,1,0,.99l-2.475,3.3A.823.823,0,0,1,69.089,221.583Zm0,0" transform="translate(-61.664 -192.708)"/><path class="a" d="M64.26,65.475a.825.825,0,0,1-.116-1.641l3.472-.5.5-3.471a.825.825,0,1,1,1.633.233l-.584,4.084a.822.822,0,0,1-.7.7l-4.084.584A.776.776,0,0,1,64.26,65.475Zm0,0" transform="translate(-57.303 -53.439)"/><path class="a" d="M100.456,101.689a.825.825,0,0,1-.116-1.641l3.471-.5.5-3.471a.825.825,0,1,1,1.633.233l-.583,4.084a.822.822,0,0,1-.7.7l-4.084.583A.883.883,0,0,1,100.456,101.689Zm0,0" transform="translate(-90 -86.152)"/><path class="a" d="M384.056,385.285a.78.78,0,0,1-.118-.008.825.825,0,0,1-.7-.933l.584-4.084a.822.822,0,0,1,.7-.7l4.084-.584a.825.825,0,1,1,.233,1.633l-3.471.5-.5,3.472A.825.825,0,0,1,384.056,385.285Zm0,0" transform="translate(-346.18 -342.329)"/><path class="a" d="M347.857,349.083a.783.783,0,0,1-.118-.008.825.825,0,0,1-.7-.933l.583-4.084a.822.822,0,0,1,.7-.7l4.084-.583a.825.825,0,1,1,.233,1.633l-3.471.5-.5,3.472A.825.825,0,0,1,347.857,349.083Zm0,0" transform="translate(-313.48 -309.628)"/><path class="a" d="M394.757,65.481a.783.783,0,0,1-.118-.008l-4.084-.584a.823.823,0,0,1-.7-.7l-.583-4.084a.825.825,0,1,1,1.633-.233l.5,3.471,3.471.5a.825.825,0,0,1-.116,1.641Zm0,0" transform="translate(-351.63 -53.445)"/><path class="a" d="M358.559,101.7a.785.785,0,0,1-.118-.008l-4.084-.583a.823.823,0,0,1-.7-.7l-.583-4.084a.825.825,0,1,1,1.633-.233l.5,3.471,3.472.5a.825.825,0,0,1-.116,1.641Zm0,0" transform="translate(-318.932 -86.161)"/><path class="a" d="M68.917,391.32a.825.825,0,0,1-.815-.708l-.5-3.471-3.471-.5a.825.825,0,1,1,.233-1.633l4.084.583a.822.822,0,0,1,.7.7l.584,4.084a.825.825,0,0,1-.818.941Zm0,0" transform="translate(-57.294 -347.781)"/><path class="a" d="M105.123,355.111a.825.825,0,0,1-.815-.708l-.5-3.471-3.471-.5a.825.825,0,1,1,.233-1.633l4.084.583a.822.822,0,0,1,.7.7l.583,4.084a.825.825,0,0,1-.7.933A.839.839,0,0,1,105.123,355.111Zm0,0" transform="translate(-90 -315.073)"/></svg>