<svg xmlns="http://www.w3.org/2000/svg" viewBox="0 0 70.642 46.31"><defs><style>.a{fill:#806262;}</style></defs><g transform="translate(0 -88.177)"><g transform="translate(0 121.357)"><path class="a" d="M69.607,328.661a14.6,14.6,0,0,0-6.09,1.176,12.675,12.675,0,0,1-5.344,1.036,12.674,12.674,0,0,1-5.344-1.036,14.6,14.6,0,0,0-6.09-1.176,14.581,14.581,0,0,0-6.087,1.176,12.658,12.658,0,0,1-5.339,1.036,12.666,12.666,0,0,1-5.341-1.036,14.586,14.586,0,0,0-6.088-1.176,14.581,14.581,0,0,0-6.086,1.176,12.657,12.657,0,0,1-5.339,1.036,12.651,12.651,0,0,1-5.338-1.036,14.572,14.572,0,0,0-6.085-1.176,1.035,1.035,0,1,0,0,2.07,12.651,12.651,0,0,1,5.338,1.036,14.572,14.572,0,0,0,6.085,1.176,14.581,14.581,0,0,0,6.086-1.176,12.657,12.657,0,0,1,5.339-1.036,12.665,12.665,0,0,1,5.341,1.036,14.587,14.587,0,0,0,6.088,1.176,14.581,14.581,0,0,0,6.087-1.176,12.658,12.658,0,0,1,5.339-1.036,12.673,12.673,0,0,1,5.344,1.036,14.6,14.6,0,0,0,6.09,1.176,14.6,14.6,0,0,0,6.09-1.176,12.675,12.675,0,0,1,5.344-1.036,1.035,1.035,0,1,0,0-2.07Z" transform="translate(0 -328.661)"/></g><g transform="translate(60.83 126.814)"><path class="a" d="M445.1,368.879a1.035,1.035,0,0,0-1.338-.593l-.189.073a16.79,16.79,0,0,1-1.912.651,1.035,1.035,0,1,0,.52,2,18.7,18.7,0,0,0,2.138-.724l.186-.072A1.035,1.035,0,0,0,445.1,368.879Z" transform="translate(-440.883 -368.216)"/></g><g transform="translate(12.166 125.781)"><path class="a" d="M133.489,362.925a12.451,12.451,0,0,1-4.649-1.024,16.352,16.352,0,0,0-12.177,0,14.279,14.279,0,0,1-10.681,0,16.346,16.346,0,0,0-12.175,0,12.433,12.433,0,0,1-4.634,1.024,1.035,1.035,0,1,0,.076,2.068,14.354,14.354,0,0,0,5.306-1.162,14.279,14.279,0,0,1,10.68,0,16.346,16.346,0,0,0,12.175,0,14.285,14.285,0,0,1,10.683,0,14.374,14.374,0,0,0,5.321,1.162,1.035,1.035,0,0,0,.075-2.068Z" transform="translate(-88.177 -360.725)"/></g><g transform="translate(22.849 130.205)"><path class="a" d="M189.493,392.791a14.58,14.58,0,0,0-6.087,1.176,14.28,14.28,0,0,1-10.681,0,14.586,14.586,0,0,0-6.088-1.176,1.035,1.035,0,1,0,0,2.07,12.666,12.666,0,0,1,5.341,1.036,16.346,16.346,0,0,0,12.175,0,12.657,12.657,0,0,1,5.339-1.036,1.035,1.035,0,0,0,0-2.07Z" transform="translate(-165.603 -392.791)"/></g><g transform="translate(5.71 126.886)"><path class="a" d="M44.714,369.46a16.722,16.722,0,0,1-1.92-.653,1.035,1.035,0,1,0-.748,1.93,18.648,18.648,0,0,0,2.148.727,1.035,1.035,0,1,0,.519-2Z" transform="translate(-41.386 -368.737)"/></g><g transform="translate(18.802 100.343)"><path class="a" d="M166.354,183.437a16.52,16.52,0,0,0-30.079,9.436c0,.393.014.79.041,1.179a1.035,1.035,0,0,0,1.031.962l.074,0a1.035,1.035,0,0,0,.959-1.105c-.024-.341-.036-.689-.036-1.033a14.45,14.45,0,0,1,26.311-8.253,1.035,1.035,0,0,0,1.7-1.184Z" transform="translate(-136.275 -176.354)"/></g><g transform="translate(6.636 115.827)"><path class="a" d="M55.768,288.581H49.132a1.035,1.035,0,0,0,0,2.07h6.636a1.035,1.035,0,0,0,0-2.07Z" transform="translate(-48.097 -288.581)"/></g><g transform="translate(34.286 88.177)"><path class="a" d="M249.535,88.177a1.035,1.035,0,0,0-1.035,1.035v6.636a1.035,1.035,0,0,0,2.07,0V89.212A1.035,1.035,0,0,0,249.535,88.177Z" transform="translate(-248.5 -88.177)"/></g><g transform="translate(49.145 96.276)"><path class="a" d="M362.656,147.177a1.035,1.035,0,0,0-1.463,0L356.5,151.87a1.035,1.035,0,1,0,1.463,1.463l4.692-4.692A1.035,1.035,0,0,0,362.656,147.177Z" transform="translate(-356.197 -146.874)"/></g><g transform="translate(25.398 94.369)"><path class="a" d="M186.916,135.737l-.846-2.044a1.035,1.035,0,1,0-1.912.792l.846,2.044a1.035,1.035,0,1,0,1.912-.792Z" transform="translate(-184.078 -133.055)"/></g><g transform="translate(53.7 106.939)"><g transform="translate(0 0)"><path class="a" d="M393.246,224.8a1.035,1.035,0,0,0-1.352-.56l-2.044.846a1.035,1.035,0,1,0,.792,1.912l2.044-.846A1.035,1.035,0,0,0,393.246,224.8Z" transform="translate(-389.211 -224.159)"/></g></g><g transform="translate(42.327 94.369)"><path class="a" d="M309.061,133.133a1.035,1.035,0,0,0-1.352.56l-.846,2.044a1.035,1.035,0,1,0,1.912.792l.846-2.044A1.035,1.035,0,0,0,309.061,133.133Z" transform="translate(-306.783 -133.054)"/></g><g transform="translate(12.828 106.939)"><g transform="translate(0 0)"><path class="a" d="M96.448,225.084l-2.044-.846a1.035,1.035,0,0,0-.792,1.912l2.044.846a1.035,1.035,0,1,0,.792-1.912Z" transform="translate(-92.973 -224.158)"/></g></g><g transform="translate(4.424 94.813)"><path class="a" d="M43.764,136.275a6.9,6.9,0,0,0-4.22,1.446,5.686,5.686,0,0,0-1.7-.261,5.781,5.781,0,0,0-5.775,5.775A1.035,1.035,0,0,0,33.1,144.27h16.59a1.035,1.035,0,0,0,1.035-1.035A6.968,6.968,0,0,0,43.764,136.275ZM34.281,142.2a3.712,3.712,0,0,1,3.558-2.67,3.672,3.672,0,0,1,1.491.319,1.035,1.035,0,0,0,1.122-.188,4.87,4.87,0,0,1,8.093,2.539Z" transform="translate(-32.064 -136.275)"/></g><g transform="translate(39.816 111.008)"><path class="a" d="M301.466,254.839a5.682,5.682,0,0,0-1.7.261,6.94,6.94,0,0,0-11.18,5.514,1.035,1.035,0,0,0,1.035,1.035h16.59a1.035,1.035,0,0,0,1.035-1.035A5.781,5.781,0,0,0,301.466,254.839Zm-10.705,4.74a4.87,4.87,0,0,1,8.093-2.539,1.035,1.035,0,0,0,1.121.188,3.671,3.671,0,0,1,1.491-.319,3.712,3.712,0,0,1,3.558,2.67Z" transform="translate(-288.581 -253.654)"/></g></g></svg>