<svg xmlns="http://www.w3.org/2000/svg" viewBox="0 0 11.966 32.634"><defs><style>.a{fill:#806262;}</style></defs><g transform="translate(-0.419)"><path class="a" d="M6.4,0a3.81,3.81,0,0,1,3.806,3.806V22.035A5.982,5.982,0,1,1,.42,26.641a5.925,5.925,0,0,1,2.175-4.606V3.806A3.81,3.81,0,0,1,6.4,0ZM1.507,26.641a4.893,4.893,0,1,0,7.829-3.908.544.544,0,0,1-.217-.435V20.66H8.031V19.573H9.119V17.942H8.031V16.854H9.119V15.223H8.031V14.136H9.119V12.5H8.031V11.418H9.119V9.786H8.031V8.7H9.119V7.068H8.031V5.981H9.119V3.806a2.718,2.718,0,1,0-5.437,0V22.3a.543.543,0,0,1-.218.435A4.856,4.856,0,0,0,1.507,26.641Zm0,0" transform="translate(0)"/><path class="a" d="M60.842,106.349V87.266H61.93v19.083a2.718,2.718,0,1,1-1.087,0Zm.544,4.3a1.631,1.631,0,1,0-1.631-1.631A1.631,1.631,0,0,0,61.386,110.644Zm0,0" transform="translate(-54.986 -82.372)"/></g></svg>