<svg xmlns="http://www.w3.org/2000/svg" viewBox="0 0 23.606 64.383"><defs><style>.a{fill:#806262;}</style></defs><g transform="translate(-0.419)"><path class="a" d="M12.218,0a7.517,7.517,0,0,1,7.509,7.509V43.472A11.8,11.8,0,1,1,.42,52.559,11.69,11.69,0,0,1,4.71,43.472V7.509A7.517,7.517,0,0,1,12.218,0ZM2.565,52.559a9.654,9.654,0,1,0,15.446-7.71,1.073,1.073,0,0,1-.429-.858V40.76H15.436V38.614h2.145V35.4H15.436V33.251h2.145V30.033H15.436V27.888h2.145V24.67H15.436V22.525h2.145V19.307H15.436V17.162h2.145V13.944H15.436V11.8h2.145V7.509a5.363,5.363,0,1,0-10.726,0V43.993a1.072,1.072,0,0,1-.429.858A9.58,9.58,0,0,0,2.565,52.559Zm0,0"/><path class="a" d="M62.959,124.915V87.266H65.1v37.649a5.363,5.363,0,1,1-2.145,0Zm1.073,8.474a3.218,3.218,0,1,0-3.218-3.218A3.218,3.218,0,0,0,64.031,133.388Zm0,0" transform="translate(-51.813 -77.612)"/></g></svg>