<svg xmlns="http://www.w3.org/2000/svg" viewBox="0 0 52.5 43.37"><defs><style>.a{fill:#ffed0f;}</style></defs><g transform="translate(0 -32)"><g transform="translate(0 34.283)"><path class="a" d="M42.228,48A10.284,10.284,0,0,0,31.957,58.272a1.141,1.141,0,0,0,2.283,0,7.989,7.989,0,1,1,7.989,7.989H1.141a1.141,1.141,0,1,0,0,2.283H42.228a10.272,10.272,0,1,0,0-20.543Z" transform="translate(0 -48)"/></g><g transform="translate(0 32)"><g transform="translate(0 0)"><path class="a" d="M20.543,32a8,8,0,0,0-7.989,7.989,1.141,1.141,0,0,0,2.283,0A5.707,5.707,0,1,1,20.543,45.7H1.141a1.141,1.141,0,0,0,0,2.283h19.4a7.989,7.989,0,0,0,0-15.978Z" transform="translate(0 -32)"/></g></g><g transform="translate(0 59.391)"><g transform="translate(0 0)"><path class="a" d="M39.946,224H1.141a1.141,1.141,0,0,0,0,2.283h38.8a5.707,5.707,0,1,1-5.707,5.707,1.141,1.141,0,1,0-2.283,0A7.989,7.989,0,1,0,39.946,224Z" transform="translate(0 -224)"/></g></g></g></svg>