<svg xmlns="http://www.w3.org/2000/svg" viewBox="0 0 76.917 45.401"><defs><style>.a{fill:#8d8d89;}</style></defs><path class="a" d="M46.445,30.811s1.047-14.36-11.859-16c-11.062-1.152-14.427,9.33-14.427,9.33a6.488,6.488,0,0,0-7.849-.6,7.548,7.548,0,0,0-3.328,7.207S0,32.531,0,41.87c.247,9.484,9.7,9.248,9.7,9.248l35.342.1s8.459.1,10-8.786C55.634,32.727,46.445,30.811,46.445,30.811ZM68.3,21.9S69.344,7.54,56.44,5.9c-11.062-1.152-14.562,9.468-14.562,9.468s6.444,3.813,6.717,14.119c4.1,1.255,8.463,4.7,8.6,12.78l9.694.036s8.459.1,10-8.786c.6-9.7-8.592-11.616-8.592-11.616Z" transform="translate(0 -5.813)"/></svg>