<svg xmlns="http://www.w3.org/2000/svg" viewBox="0 0 68.867 45.401"><defs><style>.a{fill:rgba(20,3,3,0.64);}</style></defs><path class="a" d="M41.584,30.811s.937-14.36-10.618-16c-9.9-1.152-12.917,9.33-12.917,9.33a5.376,5.376,0,0,0-7.028-.6c-3.622,2.547-2.98,7.207-2.98,7.207S0,32.531,0,41.87c.221,9.484,8.681,9.248,8.681,9.248l31.643.1s7.574.1,8.953-8.786C49.811,32.727,41.584,30.811,41.584,30.811ZM61.149,21.9s.937-14.36-10.616-16c-9.9-1.152-13.038,9.468-13.038,9.468s5.77,3.813,6.014,14.119c3.668,1.255,7.578,4.7,7.7,12.78l8.679.036s7.574.1,8.953-8.786c.534-9.7-7.693-11.616-7.693-11.616Z" transform="translate(0 -5.813)"/></svg>