<svg xmlns="http://www.w3.org/2000/svg" viewBox="0 0 60.695 40.014"><defs><style>.a{fill:#cbcbc9;}</style></defs><path class="a" d="M36.65,27.845s.826-12.656-9.358-14.1c-8.729-1.015-11.384,8.223-11.384,8.223a4.738,4.738,0,0,0-6.194-.528c-3.192,2.245-2.626,6.351-2.626,6.351S0,29.361,0,37.592c.195,8.359,7.651,8.15,7.651,8.15l27.888.084s6.675.088,7.891-7.744C43.9,29.534,36.65,27.845,36.65,27.845Zm17.244-7.854s.826-12.656-9.356-14.1c-8.729-1.015-11.491,8.345-11.491,8.345s5.085,3.36,5.3,12.444c3.233,1.106,6.678,4.144,6.787,11.263l7.649.031s6.675.088,7.891-7.744c.471-8.553-6.78-10.238-6.78-10.238Z" transform="translate(0 -5.813)"/></svg>