<svg xmlns="http://www.w3.org/2000/svg" viewBox="0 0 63.527 52.37"><defs><style>.a{fill:#cbcbc9;}.b{fill:#cccaca;}</style></defs><g transform="translate(-911.035 -934.628)"><path class="a" d="M36.65,27.845s.826-12.656-9.358-14.1c-8.729-1.015-11.384,8.223-11.384,8.223a4.738,4.738,0,0,0-6.194-.528c-3.192,2.245-2.626,6.351-2.626,6.351S0,29.361,0,37.592c.195,8.359,7.651,8.15,7.651,8.15l27.888.084s6.675.088,7.891-7.744C43.9,29.534,36.65,27.845,36.65,27.845Zm17.244-7.854s.826-12.656-9.356-14.1c-8.729-1.015-11.491,8.345-11.491,8.345s5.085,3.36,5.3,12.444c3.233,1.106,6.678,4.144,6.787,11.263l7.649.031s6.675.088,7.891-7.744c.471-8.553-6.78-10.238-6.78-10.238Z" transform="translate(911.035 928.816)"/><path class="b" d="M15.811,14.549c-.818,6.584-4.994,7.755-4.994,12.333a5.182,5.182,0,0,0,10.363,0c0-4.578-4.176-5.749-4.994-12.333a.193.193,0,0,0-.376,0ZM6.213.149C5.395,6.733,1.219,7.9,1.219,12.482a5.181,5.181,0,0,0,10.362,0C11.581,7.9,7.405,6.733,6.587.149a.192.192,0,0,0-.374,0Zm19.2,0c-.818,6.584-4.994,7.755-4.994,12.333a5.181,5.181,0,0,0,10.362,0C30.781,7.9,26.6,6.733,25.787.149a.192.192,0,0,0-.374,0Z" transform="translate(943.781 954.999)"/></g></svg>